# AST/ASF file generated using VICON BodyLanguage
# -----------------------------------------------
:version 1.10
:name VICON
:units
  mass 1.0
  length 0.45
  angle deg
:documentation
   .ast/.asf automatically generated from VICON data using
   VICON BodyBuilder and BodyLanguage model FoxedUp or BRILLIANT.MOD
:root
   order TX TY TZ RX RY RZ
   axis XYZ
   position 0 0 0  
   orientation 0 0 0 
:bonedata
  begin
     id 1 
     name lhipjoint
     direction 0.589753 -0.68606 0.426044 
     length 2.54082 
     axis 0 0 0  XYZ
  end
  begin
     id 2 
     name lfemur
     direction 0.34202 -0.939693 0  
     length 7.04539  
     axis 0 0 20  XYZ
    dof rx ry rz
    limits (-160.0 20.0)
           (-70.0 70.0)
           (-60.0 70.0)
  end
  begin
     id 3 
     name ltibia
     direction 0.34202 -0.939693 0   
     length 7.83772   
     axis 0 0 20   XYZ
    dof rx
    limits (-10.0 170.0)
  end
  begin
     id 4 
     name lfoot
     direction 0.0596604 -0.163915 0.984669   
     length 2.39542   
     axis -90 7.62852e-016 20   XYZ
    dof rx rz
    limits (-45.0 90.0)
           (-70.0 20.0)
  end
  begin
     id 5 
     name ltoes
     direction 1.53514e-011 -4.21954e-011 1   
     length 1.2047   
     axis -90 7.62852e-016 20   XYZ
    dof rx
    limits (-90.0 20.0)
  end
  begin
     id 6 
     name rhipjoint
     direction -0.580585 -0.69168 0.429534   
     length 2.52018  
     axis 0 0 0  XYZ 
  end
  begin
     id 7 
     name rfemur
     direction -0.34202 -0.939693 0   
     length 7.0101   
     axis 0 0 -20   XYZ
    dof rx ry rz
    limits (-160.0 20.0)
           (-70.0 70.0)
           (-70.0 60.0)
  end
  begin
     id 8 
     name rtibia
     direction -0.34202 -0.939693 0   
     length 7.70628   
     axis 0 0 -20   XYZ
    dof rx
    limits (-10.0 170.0)
 end
 begin
     id 9 
     name rfoot
     direction -0.0696237 -0.19129 0.979061   
     length 2.52466  
     axis -90 -7.62852e-016 -20   XYZ
    dof rx rz
    limits (-45.0 90.0)
           (-20.0 70.0)
  end
  begin
     id 10 
     name rtoes
     direction -1.53519e-011 -4.21793e-011 1   
     length 1.266   
     axis -90 -7.62852e-016 -20   XYZ
    dof rx
    limits (-90.0 20.0)
  end
  begin
     id 11 
     name lowerback
     direction 0.00381965 0.995707 -0.0924856   
     length 2.20825   
     axis 0 0 0   XYZ
    dof rx ry rz
    limits (-20.0 45.0)
           (-30.0 30.0)
           (-30.0 30.0)
  end
  begin
     id 12 
     name upperback
     direction -0.0139043 0.999634 -0.0231929   
     length 2.21517   
     axis 0 0 0   XYZ
    dof rx ry rz
    limits (-20.0 45.0)
           (-30.0 30.0)
           (-30.0 30.0)
  end
  begin
     id 13 
     name thorax
     direction -0.0143933 0.999691 0.0202892   
     length 2.22911   
     axis 0 0 0   XYZ
    dof rx ry rz
    limits (-20.0 45.0)
           (-30.0 30.0)
           (-30.0 30.0)
  end
  begin
     id 14 
     name lowerneck
     direction -0.0251153 0.981819 0.188153   
     length 1.61782   
     axis 0 0 0   XYZ
    dof rx ry rz
    limits (-20.0 45.0)
           (-30.0 30.0)
           (-30.0 30.0)
  end
  begin
     id 15 
     name upperneck
     direction 0.0563891 0.969357 -0.239095   
     length 1.64526   
     axis 0 0 0   XYZ
    dof rx ry rz
    limits (-20.0 45.0)
           (-30.0 30.0)
           (-30.0 30.0)
  end
  begin
     id 16
     name head
     direction 0.0208328 0.99459 -0.101773  
     length 1.67436  
     axis 0 0 0   XYZ
    dof rx ry rz
    limits (-20.0 45.0)
           (-30.0 30.0)
           (-30.0 30.0)
  end
  begin
     id 17 
     name lclavicle
     direction 0.917689 0.397224 0.00772059  
     length 3.31102  
     axis 0 0 0   XYZ
    dof ry rz
    limits (-20.0 10.0)
           (0.0 20.0)
  end
  begin
     id 18 
     name lhumerus
     direction 1 -4.4896e-011 2.32308e-027   
     length 5.25537   
     axis 180 -30 -90   XYZ
    dof rx ry rz
    limits (-60.0 90.0)
           (-90.0 90.0)
           (-90.0 90.0)
  end
  begin
     id 19
     name lradius
     direction 1 -4.49005e-011 -2.04271e-027   
     length 3.38855   
     axis 180 -30 -90   XYZ
    dof rx
    limits (-10.0 170.0)
  end
  begin
     id 20
     name lwrist
     direction 1 -4.48892e-011 2.56952e-028   
     length 1.69428   
     axis -5.12785e-016 90 90   XYZ
    dof ry
    limits (-180.0 0.0)
 end
  begin
     id 21 
     name lhand
     direction 1 -4.48966e-011 5.13905e-028   
     length 0.614516   
     axis -3.27915e-016 90 90   XYZ
    dof rx rz
    limits (-90.0 90.0)
           (-45.0 45.0)
  end
  begin
     id 22 
     name lfingers
     direction 1 -4.48979e-011 1.02781e-027   
     length 0.495439   
     axis -6.5583e-016 90 90   XYZ
    dof rx
    limits (0.0 90.0)
  end
  begin
     id 23
     name lthumb
     direction 0.707107 -6.35001e-011 0.707107   
     length 0.711354   
     axis -90 45 2.85299e-015   XYZ
    dof rx rz
    limits (-45.0 45.0)
           (-45.0 45.0)
  end
  begin
     id 24 
     name rclavicle
     direction -0.938556 0.342765 -0.0403177   
     length 3.27019  
     axis 0 0 0   XYZ 
    dof ry rz
    limits (-10.0 20.0)
           (-20.0 0.0)
  end
  begin
     id 25 
     name rhumerus
     direction -1 -4.48966e-011 2.52291e-027  
     length 5.38183   
     axis 180 30 90   XYZ
    dof rx ry rz
    limits (-90.0 60.0)
           (-90.0 90.0)
           (-90.0 90.0)
  end
  begin
     id 26 
     name rradius
     direction -1 -4.4896e-011 1.5797e-027   
     length 3.16988   
     axis 180 30 90   XYZ
    dof rx
    limits (-10.0 170.0)
  end
  begin
     id 27 
     name rwrist
     direction -1 -4.48947e-011 2.56952e-028   
     length 1.58494   
     axis -5.12785e-016 -90 -90   XYZ
    dof ry
    limits (-180.0 0.0)
  end
  begin
     id 28
     name rhand
     direction -1 -4.49098e-011 5.13905e-028   
     length 0.637679   
     axis -3.27915e-016 -90 -90   XYZ
    dof rx rz
    limits (-90.0 90.0)
           (-45.0 45.0)
  end
  begin
     id 29
     name rfingers
     direction -1 -4.49026e-011 1.02781e-027   
     length 0.514113   
     axis -6.5583e-016 -90 -90   XYZ
    dof rx
    limits (0.0 90.0)
  end
  begin
     id 30
     name rthumb
     direction -0.707107 -6.3491e-011 0.707107   
     length 0.738167   
     axis -90 -45 -2.85299e-015   XYZ
    dof rx rz
    limits (-45.0 45.0)
           (-45.0 45.0)
  end
:hierarchy
  begin
    root lhipjoint rhipjoint lowerback
    lhipjoint lfemur
    lfemur ltibia
    ltibia lfoot
    lfoot ltoes
    rhipjoint rfemur
    rfemur rtibia
    rtibia rfoot
    rfoot rtoes
    lowerback upperback
    upperback thorax
    thorax lowerneck lclavicle rclavicle
    lowerneck upperneck
    upperneck head
    lclavicle lhumerus
    lhumerus lradius
    lradius lwrist
    lwrist lhand lthumb
    lhand lfingers
    rclavicle rhumerus
    rhumerus rradius
    rradius rwrist
    rwrist rhand rthumb
    rhand rfingers
  end

#!OML:ASF H:\Swim\Project 1\Capture day 1\Session 1\swimmer.ASF
:FULLY-SPECIFIED
:DEGREES
1655
root 3.43832 16.9081 -21.6422 96.5861 -8.51974 25.4265
lowerback 5.43332 -2.92924 -4.36601
upperback -6.22345 -5.23599 -8.74252
thorax -10.252 -2.6317 -6.279
lowerneck -6.29158 -11.7778 -9.34551
upperneck -14.7064 -14.3297 16.9604
head -1.30297 -7.44556 6.33501
rclavicle -3.18055e-014 4.01545e-014
rhumerus 32.1613 -4.49773 12.1163
rradius 49.1801
rwrist -186.255
rhand -37.3703 -11.6772
rfingers 7.12502
rthumb -10.4319 -41.3984
lclavicle -3.18055e-014 4.01545e-014
lhumerus 71.6278 -0.885866 -0.300904
lradius 41.0938
lwrist -15.2554
lhand -3.60892 -6.88468
lfingers 7.12502
lthumb 22.1295 21.8689
rfemur -37.8375 -36.6422 11.1135
rtibia 49.9942
rfoot -6.79747 -13.5944
rtoes 6.16003
lfemur -40.6921 -18.8818 -26.3434
ltibia 36.1033
lfoot 11.5051 0.160993
ltoes -8.24249
1656
root 3.43329 16.9092 -21.6412 96.6388 -8.51481 25.4476
lowerback 5.42967 -2.92212 -4.40024
upperback -6.24809 -5.23083 -8.73338
thorax -10.2731 -2.62601 -6.25097
lowerneck -6.28039 -11.7855 -9.28748
upperneck -14.7226 -14.3434 16.9371
head -1.31452 -7.4555 6.32017
rclavicle 4.77083e-014 -3.73715e-014
rhumerus 32.1822 -4.6087 11.9819
rradius 49.1739
rwrist -185.813
rhand -37.3207 -11.7991
rfingers 7.12502
rthumb -10.384 -41.5227
lclavicle 4.77083e-014 -3.73715e-014
lhumerus 71.7514 -0.895227 -0.0971729
lradius 40.9931
lwrist -15.3812
lhand -3.48786 -6.84759
lfingers 7.12502
lthumb 22.2457 21.8921
rfemur -37.8496 -36.6812 11.1243
rtibia 50.0476
rfoot -6.83701 -13.5611
rtoes 6.48499
lfemur -40.6879 -18.8994 -26.3311
ltibia 36.1381
lfoot 12.1393 0.124537
ltoes -5.36888
1657
root 3.42828 16.9098 -21.6402 96.689 -8.50257 25.476
lowerback 5.42726 -2.91813 -4.4182
upperback -6.27253 -5.22872 -8.72489
thorax -10.2965 -2.62318 -6.23238
lowerneck -6.27138 -11.7922 -9.2331
upperneck -14.7476 -14.3547 16.9113
head -1.32857 -7.46414 6.30565
rclavicle 3.49861e-014 -4.49253e-014
rhumerus 32.2031 -4.72511 11.8393
rradius 49.1604
rwrist -185.406
rhand -37.2604 -11.9189
rfingers 7.12502
rthumb -10.3259 -41.6454
lclavicle 3.49861e-014 -4.49253e-014
lhumerus 71.87 -0.908087 0.120874
lradius 40.9008
lwrist -15.5246
lhand -3.39603 -6.82667
lfingers 7.12502
lthumb 22.3338 21.9025
rfemur -37.8496 -36.7278 11.1375
rtibia 50.1017
rfoot -6.87179 -13.5276
rtoes 6.82037
lfemur -40.678 -18.9176 -26.3153
ltibia 36.1681
lfoot 12.7709 0.0833907
ltoes -2.32893
1658
root 3.4232 16.91 -21.6394 96.739 -8.48725 25.5126
lowerback 5.41954 -2.91701 -4.42206
upperback -6.29198 -5.2285 -8.72056
thorax -10.313 -2.62265 -6.2262
lowerneck -6.26274 -11.7976 -9.17176
upperneck -14.7885 -14.3635 16.8819
head -1.34843 -7.47216 6.29006
rclavicle 2.8625e-014 6.16232e-014
rhumerus 32.21 -4.84844 11.7244
rradius 49.1395
rwrist -185.103
rhand -37.1971 -12.0179
rfingers 7.12502
rthumb -10.2648 -41.7474
lclavicle 2.8625e-014 6.16232e-014
lhumerus 71.9808 -0.909911 0.344401
lradius 40.8256
lwrist -15.671
lhand -3.33477 -6.82569
lfingers 7.12502
lthumb 22.3926 21.8964
rfemur -37.8454 -36.7903 11.1525
rtibia 50.1589
rfoot -6.88217 -13.4939
rtoes 7.08218
lfemur -40.6647 -18.9371 -26.2995
ltibia 36.1911
lfoot 13.2732 0.0499263
ltoes 0.144012
1659
root 3.41803 16.9101 -21.6388 96.7839 -8.47192 25.5587
lowerback 5.41167 -2.91959 -4.41343
upperback -6.30364 -5.23175 -8.7208
thorax -10.3226 -2.62503 -6.23149
lowerneck -6.25877 -11.8014 -9.10583
upperneck -14.8402 -14.3694 16.8483
head -1.37186 -7.47892 6.27302
rclavicle 3.18055e-015 8.0309e-014
rhumerus 32.2214 -4.99626 11.5721
rradius 49.0889
rwrist -184.866
rhand -37.1327 -12.087
rfingers 7.12502
rthumb -10.2027 -41.8196
lclavicle 3.18055e-015 8.0309e-014
lhumerus 72.0794 -0.896331 0.566736
lradius 40.7696
lwrist -15.8104
lhand -3.30279 -6.84878
lfingers 7.12502
lthumb 22.4233 21.8696
rfemur -37.8385 -36.8721 11.1644
rtibia 50.2234
rfoot -6.84684 -13.4699
rtoes 7.17049
lfemur -40.6399 -18.9601 -26.2889
ltibia 36.2041
lfoot 13.5366 0.0279315
ltoes 1.49468
1660
root 3.41269 16.9101 -21.6375 96.8236 -8.45111 25.6107
lowerback 5.40028 -2.92425 -4.38724
upperback -6.30263 -5.23463 -8.72466
thorax -10.3176 -2.62877 -6.2506
lowerneck -6.25485 -11.8029 -9.03013
upperneck -14.9119 -14.3711 16.8145
head -1.40244 -7.4846 6.25586
rclavicle -6.04305e-014 1.59028e-014
rhumerus 32.2211 -5.16649 11.4334
rradius 49.0212
rwrist -184.76
rhand -37.0659 -12.1022
rfingers 7.12502
rthumb -10.1382 -41.838
lclavicle -6.04305e-014 1.59028e-014
lhumerus 72.1605 -0.851971 0.772839
lradius 40.7419
lwrist -15.9163
lhand -3.29722 -6.89407
lfingers 7.12502
lthumb 22.4287 21.8237
rfemur -37.834 -36.9678 11.1824
rtibia 50.2963
rfoot -6.75387 -13.4544
rtoes 6.98299
lfemur -40.6037 -18.9819 -26.278
ltibia 36.2034
lfoot 13.5761 0.0124331
ltoes 1.75289
1661
root 3.40713 16.9104 -21.6358 96.8546 -8.43587 25.6676
lowerback 5.39514 -2.92993 -4.35753
upperback -6.28783 -5.23784 -8.73154
thorax -10.3015 -2.63296 -6.27443
lowerneck -6.26792 -11.8049 -8.94804
upperneck -14.9901 -14.3723 16.7767
head -1.43322 -7.48989 6.23594
rclavicle -6.99722e-014 -6.32135e-014
rhumerus 32.2141 -5.37127 11.2848
rradius 48.9336
rwrist -184.748
rhand -37.0106 -12.0844
rfingers 7.12502
rthumb -10.0849 -41.8227
lclavicle -6.99722e-014 -6.32135e-014
lhumerus 72.2302 -0.7773 0.974884
lradius 40.7333
lwrist -15.9943
lhand -3.33681 -6.95209
lfingers 7.12502
lthumb 22.3907 21.7703
rfemur -37.8267 -37.0631 11.1873
rtibia 50.3796
rfoot -6.62183 -13.4541
rtoes 6.5986
lfemur -40.5518 -19.0057 -26.2788
ltibia 36.187
lfoot 13.4581 0.00713561
ltoes 1.15971
1662
root 3.40123 16.911 -21.6336 96.8855 -8.42197 25.7224
lowerback 5.3922 -2.93222 -4.33022
upperback -6.27045 -5.23644 -8.73838
thorax -10.2832 -2.63461 -6.29741
lowerneck -6.26729 -11.8044 -8.86369
upperneck -15.0789 -14.3707 16.7338
head -1.47029 -7.49452 6.21582
rclavicle 3.49861e-014 5.92378e-014
rhumerus 32.194 -5.58942 11.1391
rradius 48.8364
rwrist -184.819
rhand -36.927 -12.0062
rfingers 7.12502
rthumb -10.0042 -41.7485
lclavicle 3.49861e-014 5.92378e-014
lhumerus 72.2993 -0.69374 1.18051
lradius 40.7358
lwrist -16.0463
lhand -3.42647 -7.01221
lfingers 7.12502
lthumb 22.3046 21.7205
rfemur -37.8259 -37.1402 11.1893
rtibia 50.4687
rfoot -6.46795 -13.467
rtoes 6.07309
lfemur -40.4946 -19.0232 -26.2838
ltibia 36.157
lfoot 13.3369 0.00850325
ltoes 0.42946
1663
root 3.39504 16.9119 -21.6311 96.9166 -8.41179 25.7766
lowerback 5.40165 -2.93311 -4.31158
upperback -6.26014 -5.23577 -8.74188
thorax -10.2793 -2.63574 -6.31142
lowerneck -6.24983 -11.8013 -8.78595
upperneck -15.1673 -14.3665 16.6895
head -1.50983 -7.49794 6.1975
rclavicle 3.49861e-014 -1.94809e-014
rhumerus 32.1807 -5.81292 10.9614
rradius 48.73
rwrist -184.899
rhand -36.8231 -11.8947
rfingers 7.12502
rthumb -9.90401 -41.6417
lclavicle 3.49861e-014 -1.94809e-014
lhumerus 72.3808 -0.628208 1.40875
lradius 40.7234
lwrist -16.0957
lhand -3.57446 -7.06953
lfingers 7.12502
lthumb 22.1625 21.6801
rfemur -37.8261 -37.1924 11.1823
rtibia 50.5603
rfoot -6.31173 -13.499
rtoes 5.5254
lfemur -40.4362 -19.0366 -26.2951
ltibia 36.1183
lfoot 13.2203 0.0179395
ltoes -0.34585
1664
root 3.38851 16.9131 -21.6287 96.9501 -8.4062 25.8277
lowerback 5.41957 -2.93349 -4.30289
upperback -6.25686 -5.23692 -8.74323
thorax -10.2874 -2.63688 -6.31701
lowerneck -6.22237 -11.7961 -8.71012
upperneck -15.2475 -14.3599 16.652
head -1.54801 -7.50044 6.18179
rclavicle -1.59028e-014 2.3059e-014
rhumerus 32.1634 -6.01299 10.8196
rradius 48.6371
rwrist -185.026
rhand -36.6873 -11.7473
rfingers 7.12502
rthumb -9.77294 -41.5006
lclavicle -1.59028e-014 2.3059e-014
lhumerus 72.4702 -0.579034 1.65063
lradius 40.699
lwrist -16.1427
lhand -3.79034 -7.10934
lfingers 7.12502
lthumb 21.9553 21.6647
rfemur -37.8249 -37.2206 11.1669
rtibia 50.6477
rfoot -6.17908 -13.5323
rtoes 5.07912
lfemur -40.3843 -19.0415 -26.3137
ltibia 36.0779
lfoot 13.1289 0.026836
ltoes -1.11066
